# xmcd
#
# Track frame offsets:
#	150
#	20891
#	36860
#	54629
#	74416
#	98146
#	120570
#	138226
#	156591
#	177867
#	196967
#	211996
#	231234
#	246608
#	271436
#
# Disc length: 3817 seconds
#
# Revision: 1
# Processed by: cddbd v1.5.2PL0 Copyright (c) Steve Scherf et al.
# Submitted via: audiograbber 1.83.01
#
DISCID=e60ee70f
DTITLE=Marisa Yeaman - Roadmap Heart
DYEAR=2008
DGENRE=Alt Country
TTITLE0=1000 Mile Stare
TTITLE1=Old Hotel Phone
TTITLE2=Desolate
TTITLE3=Bonneville
TTITLE4=Flying North
TTITLE5=Dirty Hands
TTITLE6=Time Is Cast
TTITLE7=Mercy Train
TTITLE8=Amsterdam Rain
TTITLE9=Love From Stone
TTITLE10=Leaves
TTITLE11=Silent Murder
TTITLE12=Wild Things
TTITLE13=Perfectly Flawed
TTITLE14=Mantra
EXTD=
EXTT0=
EXTT1=
EXTT2=
EXTT3=
EXTT4=
EXTT5=
EXTT6=
EXTT7=
EXTT8=
EXTT9=
EXTT10=
EXTT11=
EXTT12=
EXTT13=
EXTT14=
PLAYORDER=
